<svg xmlns="http://www.w3.org/2000/svg" enable-background="new -1095.842 568.855 3000 3000" viewBox="-1095.842 568.855 3000 3000" id="pay-by-bank-card"><path fill="#DCF4E6" d="M1466.114,2447.908c-1.857,3.818-3.818,7.532-5.778,11.247
		c-95.239,181.913-310.479,265.904-526.856,209.772c-80.277-20.842-149.513-61.806-231.131-93.587
		c-7.017-2.786-14.137-5.365-21.36-7.944c-115.566-41.481-258.579-60.673-490.225,18.985
		c-360.215,123.821-665.226,167.88-818.557-63.458c-1.961-2.786-3.818-5.675-5.572-8.667c-20.74-32.812-38.488-70.991-53.036-115.05
		c-42.305-127.433-0.929-273.334,90.285-413.56c2.889-4.436,5.882-8.976,8.874-13.414c65.315-96.786,153.95-190.477,254.657-273.127
		c10.834-8.874,21.255-18.161,31.367-27.86c3.096-2.683,6.191-5.675,9.185-8.77c56.749-55.72,101.119-120.623,138.885-187.692
		c1.753-3.095,3.508-6.191,5.261-9.287c69.649-126.089,117.424-258.99,181.706-354.746c5.263-7.841,10.629-15.375,16.304-22.7
		c2.374-3.199,4.849-6.399,7.429-9.493c20.121-25.178,42.41-47.568,66.554-66.966c2.786-2.372,5.675-4.644,8.564-6.81
		c65.419-50.354,143.426-80.278,228.965-89.461c4.334-0.412,8.565-0.826,12.898-1.237
		c132.592-10.835,282.208,27.653,429.966,117.318c3.921,2.271,7.738,4.644,11.661,7.12
		c96.785,60.362,192.541,142.909,281.897,247.848c2.786,3.198,5.572,6.501,8.358,9.802
		c80.174,95.858,155.188,209.979,220.916,342.776c1.652,3.198,3.2,6.397,4.746,9.595c22.495,46.021,43.853,94.207,64.077,144.664
		c1.239,3.199,2.477,6.397,3.818,9.597c15.272,39.003,29.924,79.245,43.648,120.931c1.135,3.198,2.166,6.501,3.198,9.699
		c15.065,46.123,29.201,93.691,42.099,143.013C1527.508,2223.38,1513.992,2349.265,1466.114,2447.908z"></path><path fill="#FFF" d="M1446.818,1933.434c-94.619,31.265-200.279,51.902-304.907,51.902
			c-96.684,0-192.438-17.747-277.668-61.188c-157.974-80.689-261.055-237.426-306.456-466.08
			c-57.369-289.017-131.662-451.429-196.152-542.747c4.334-0.412,8.565-0.826,12.898-1.237
			c64.283,93.793,136.822,257.133,193.367,542.023c44.679,225.352,146.005,379.716,301.09,458.858
			c174.381,89.047,394.781,67.895,574.631,8.771C1444.755,1926.933,1445.786,1930.236,1446.818,1933.434z"></path><path fill="#FFF" d="M1399.973,1802.804c-73.053,18.779-138.37,28.17-196.255,28.17c-77.594,0-141.878-16.82-193.675-50.252
			c-107.104-69.235-163.959-209.772-173.761-429.656c-5.779-127.741-17.542-233.401-31.781-319.664
			c3.921,2.271,7.738,4.644,11.661,7.12c13.62,85.024,24.867,188.311,30.439,312.029c9.7,216.376,65.006,354.229,169.117,421.505
			c87.81,56.751,213.179,63.871,380.439,21.153C1397.394,1796.407,1398.632,1799.605,1399.973,1802.804z"></path><path fill="#FFF" d="M1332.078 1648.543c-38.693 9.184-73.259 13.828-103.802 13.828-57.886 0-101.017-16.51-128.876-49.528-61.394-72.539-38.281-209.98-1.342-326.474 2.786 3.198 5.572 6.501 8.358 9.802-34.979 112.78-56.029 242.895.825 310.067 39.725 46.846 113.605 57.783 220.09 32.71C1328.983 1642.146 1330.532 1645.345 1332.078 1648.543zM1466.114 2447.908c-1.857 3.818-3.818 7.532-5.778 11.247-41.789 5.365-88.016 8.668-138.473 8.668-215.345 0-507.869-60.363-862.1-278.493-458.032-282-812.778-270.548-1029.669-211.32-8.874 2.477-17.645 4.953-26.209 7.636 2.889-4.436 5.882-8.976 8.874-13.414 4.85-1.445 9.699-2.786 14.549-4.128 218.956-59.846 576.693-71.506 1037.822 212.353C904.794 2451.107 1248.294 2477.626 1466.114 2447.908zM702.349 2575.34c-7.017-2.786-14.137-5.365-21.36-7.944-135.17-143.838-336.688-281.382-609.609-273.232-302.948 8.978-537.382 118.042-699.173 228.759-1.961-2.786-3.818-5.675-5.572-8.667 163.133-111.542 399.423-221.33 704.434-230.41C357.199 2275.488 565.732 2424.589 702.349 2575.34zM333.569 1547.217c-9.802 107.311-61.496 177.475-149.513 202.859-31.78 9.183-66.656 13.208-103.7 13.208-115.669 0-252.593-40.139-381.573-92.04 3.096-2.683 6.191-5.675 9.185-8.77 167.672 67.275 347.418 113.914 473.199 77.696 105.661-30.542 135.583-122.272 142.187-193.882 14.962-165.094-78.42-397.257-199.248-534.697 2.786-2.372 5.675-4.644 8.564-6.81C256.182 1143.872 349.15 1376.552 333.569 1547.217z"></path><path fill="#FFF" d="M126.79,1563.83c-12.072,6.088-26.313,8.874-42.099,8.874c-63.871,0-154.259-45.298-237.838-97.921
			c1.753-3.095,3.508-6.191,5.261-9.287c101.947,64.592,213.281,117.938,270.033,89.151c90.595-46.02-15.787-332.148-72.023-466.596
			c2.374-3.199,4.849-6.399,7.429-9.493C114.304,1213.006,227.187,1512.858,126.79,1563.83z"></path><g><polygon fill="#D7A28E" points="805.008 2846.499 907.983 2935.621 939.405 2881.8 870.545 2790.59"></polygon><path fill="#FFC439" d="M918.148,2849.051c-0.282-10.587,81.441,48.411,79.594,55.737
					c-1.846,7.326-101.275,157.504-116.88,166.893c-15.606,9.39-43.64-9.01-32.385-34.992
					c11.256-25.981,36.329-79.427,28.31-106.592c0,0-17.21-26.96-16.888-32.256c0.322-5.296,19.629,6.36,19.629,6.36
					S918.826,2874.46,918.148,2849.051z"></path><path fill="#DBA12C" d="M855.872,3019.949c0.673,0.951,3.13,0.081,6.706,0.014c3.618-0.054,8.586,1.16,14.065,3.458
						c10.962,4.7,19.587,10.515,20.947,8.881c1.313-1.389-5.461-10.199-18.11-15.699c-6.279-2.676-13.144-3.425-17.831-1.778
						C856.948,3016.529,855.33,3019.318,855.872,3019.949z"></path><path fill="#11405C" d="M987.603,2890.544c3.007,1.861,15.868,10.803,13.242,16.725
					c-2.626,5.921-118.019,173.393-121.069,172.888c-3.051-0.504-11.795-6.091-13.803-6.681
					C863.964,3072.885,987.603,2890.544,987.603,2890.544z"></path><path fill="#DBA12C" d="M893.421 2958.876c-1.717-7.134-18.375-5.633-19.46-2.545C872.876 2959.42 895.113 2965.91 893.421 2958.876zM888.014 2976.487c-1.716-7.133-18.374-5.633-19.459-2.544C867.47 2977.03 889.708 2983.521 888.014 2976.487zM881.26 2994.046c-1.716-7.134-18.375-5.633-19.46-2.545C860.714 2994.59 882.953 3001.081 881.26 2994.046zM921.687 2929.722c7.871 5.512 18.721 3.599 24.233-4.272 5.512-7.871 3.599-18.721-4.272-24.233-7.871-5.512-18.721-3.599-24.233 4.271C911.902 2913.36 913.815 2924.21 921.687 2929.722z"></path><path fill="#2F627C" d="M755.301,2124.086l-87.087,344.37l225.192,339.753l-57.943,72.366c0,0-410.831-323.379-404.546-371.179
			c6.285-47.8,84.372-393.623,84.372-393.623L755.301,2124.086z"></path><path fill="#11405C" d="M822.093,2700.549l-49.769,129.529l-0.104-0.088l-245.093-208.594c0,0,67.572-23.439,66.323-52.564
			c-1.25-29.124-9.891-255.647-9.891-255.647v-176.932l66.844,139.586l43.729,90.172l-25.925,102.416L822.093,2700.549z"></path><g><path fill="#D7A28E" d="M689.336,3071.843c-0.635,3.847-5.942,63.168-8.787,79.432c-8.323,6.53-55.391-1.624-57.861-10.594
				c-2.468-8.972,6.594-79.856,6.594-79.856L689.336,3071.843z"></path><path fill="#FFC439" d="M666.817,3220.795c-6.173,1.603-129.503-21.386-141.679-23.402c-12.178-2.018-0.244-45.055,37.512-39.713
				l50.391-28.487c3.423-8.474,7.697-17.78,10.74-21.335c5.495-6.35,23.977-4.158,34.435,5.683
				c4.852,4.59,5.973,12.702,5.427,20.483c11.958,2.245,20.7,5.13,20.379,11.891
				C683.582,3155.274,673.028,3219.196,666.817,3220.795z"></path><path fill="#DBA12C" d="M596.102 3183.508c-.265-4.438-15.505-26.056-35.217-25.801 0 0 10.663-11.191 27.308 2.041C600.478 3169.518 596.102 3183.508 596.102 3183.508zM653.493 3172.645c-1.148 6.936 2.156 13.259 7.381 14.124 5.225.865 10.388-4.06 11.531-10.997 1.148-6.938-2.158-13.261-7.381-14.124C659.802 3160.784 654.638 3165.709 653.493 3172.645zM615.853 3159.919c-4.845-3.893-31.491-10.053-24.906-12.698 6.583-2.645 25.968 4.95 26.687 9.899S615.853 3159.919 615.853 3159.919zM625.703 3152.126c-4.845-3.896-31.491-10.054-24.908-12.698 6.588-2.647 25.971 4.945 26.69 9.896C628.205 3154.273 625.703 3152.126 625.703 3152.126zM635.554 3144.33c-4.845-3.896-31.491-10.055-24.906-12.7 6.583-2.645 25.969 4.95 26.69 9.899C638.053 3146.477 635.554 3144.33 635.554 3144.33z"></path><path fill="#11405C" d="M671.924,3210.22c0.015-0.094-55.02-6.504-85.525-11.713c-3.407-0.583-4.726-9.783-35.216-15.262
				c-21.06-4.101-29.334,1.417-30.198,2.037c-1.621,1.16-6.466,13.888-0.656,15.932c5.809,2.044,143.053,26.049,145.765,24.081
				C671.454,3221.406,671.924,3210.22,671.924,3210.22z"></path></g><polygon fill="#2F627C" points="888.44 2115.773 705.291 3102.951 611.452 3082.168 618.468 2263.805 578.012 2115.773"></polygon><path fill="#F2CD33" d="M484.316,2115.773c0,0,376.289,86.593,414.664,44.534c38.374-42.06-61.954-579.553-82.315-590.409
			c-20.361-10.855-164.386,0-164.386,0S533.647,1917.846,484.316,2115.773z"></path><path fill="#DBA12C" d="M896.583,1969.271L685.172,1927.5c0,0-5.201,169.475-7.76,226.353
			c-48.952-8.09-96.749-17.5-132.492-25.011c-36.569-7.514-60.592-13.044-60.592-13.044
			c27.077-108.801,75.121-262.84,112.928-379.565c19.565-60.593,10.756-98.325,20.497-127.301
			c17.335,2.888,60.725,12.289,65.182,17.654c8.173,9.824-7.917,173.044-6.596,186.088c0.99,9.988,144.215,62.656,210.585,86.43
			C890.557,1922.961,893.777,1946.57,896.583,1969.271z"></path><g><path fill="#549BEC" d="M603.05,1534.13l-945.051-58.34c-29.7-1.834-55.07,20.811-56.905,50.528l-34.685,561.863
			c-1.832,29.682,20.572,55.089,50.271,56.922l945.051,58.34c29.735,1.835,55.331-20.608,57.163-50.291l34.685-561.863
			C655.414,1561.573,632.784,1535.965,603.05,1534.13z"></path><path fill="#D7A28E" d="M338.258,1509.376c0,0-8.34-16.362-25.159,1.685c-16.818,18.049-7.156,31.449,0.62,29.611
						c7.776-1.838,12.902-2.438,17.165-15.333c0,0,1.559,11.708,10.585,10.947c9.025-0.764,13.974-8.29,13.974-8.29
						s-0.765,10.685,3.511,12.449c4.276,1.763,15.349-1.933,20.021-12.739c0,0,2.952,11.668,15.428,4.729
						c12.476-6.939,8.384-9.154,8.384-9.154l16.671,0.676c0,0-6.335-21.838-31.882-14.725c0,0-10.271-13.75-23.38,1.539
						C364.198,1510.771,351.959,1490.635,338.258,1509.376z"></path><path fill="#C18C7C" d="M338.301 1509.595c.586.519-1.776 3.821-3.732 8.27-2.034 4.431-2.844 8.329-3.529 8.316-.762.029-1.078-4.505 1.155-9.38C334.37 1511.896 337.845 1509.127 338.301 1509.595zM364.213 1510.223c.265.273-.272 1.243-1.051 2.803-.787 1.563-1.817 3.755-2.935 6.215-2.237 4.919-4.087 8.975-4.783 8.754-.674-.207.092-4.717 2.416-9.834 1.16-2.553 2.523-4.753 3.779-6.168C362.897 1510.568 363.982 1509.976 364.213 1510.223zM387.578 1509.232c.239.316-.483 1.237-1.402 2.798-.915 1.579-1.997 3.862-3.005 6.514-2.034 5.297-3.288 9.848-4.016 9.725-.689-.096-.571-5.016 1.59-10.665 1.068-2.815 2.542-5.221 3.965-6.686C386.156 1509.448 387.394 1508.97 387.578 1509.232z"></path><path fill="#91C4F6" d="M20.654 1886.851l-5.09-.314.352-5.689 11.38.703-2.462 39.884-6.29-.388L20.654 1886.851zM33.256 1916.848c9.919-7.68 20.268-14.293 20.75-22.115.257-4.159-1.371-7.114-6.022-7.402-4.377-.27-6.919 2.649-7.36 7.125l-6.018-.372c.752-8.631 6.593-12.498 13.65-12.063 8.099.5 12.393 5.652 11.951 12.818-.598 9.685-10.902 16.463-17.664 21.921l17.343 1.071-.321 5.197-26.589-1.641L33.256 1916.848zM80.507 1883.901c7.934.49 11.972 5.354 11.613 11.152-.294 4.76-3.502 7.802-6.684 8.65l-.014.218c4.081 1.515 6.548 5.129 6.206 10.655-.392 6.346-5.175 10.883-13.49 10.369-7.551-.466-13.162-4.766-13.062-12.614l6.018.371c.044 3.739 2.604 6.752 7.308 7.043 4.651.287 7.125-2.415 7.355-6.137.325-5.252-2.957-7.266-9.467-7.668l-1.423-.088.318-5.143 1.477.091c5.639.292 9.188-1.137 9.451-5.402.213-3.448-1.888-5.883-6.156-6.146-4.377-.271-6.564 2.229-7.119 4.996l-6.072-.375C67.628 1887.005 73.23 1883.451 80.507 1883.901zM117.088 1918.781l-19.804-1.222.29-4.704 20.011-25.236 7.551.467-1.584 25.66 5.088.314-.334 5.415-5.088-.314-.513 8.317-6.13-.378L117.088 1918.781zM117.697 1913.383l1.192-19.314-14.102 18.517L117.697 1913.383zM175.369 1890.582l-.338 5.47-18.328-1.131-.672 10.888c1.598-1.878 4.927-3.321 8.485-3.101 9.791.604 12.352 8.067 11.98 14.085-.49 7.932-5.401 13.67-14.647 13.1-8.208-.507-12.687-5.343-13.231-11.637l6.072.375c.612 3.443 3.322 5.808 7.534 6.068 5.361.331 7.996-3.187 8.3-8.111.321-5.197-2.067-8.312-7.266-8.632-3.667-.226-6.253 1.646-7.476 4.538l-5.907-.365 1.422-23.034L175.369 1890.582zM205.501 1901.833c-.567-3.275-2.369-5.199-6.309-5.443-5.636-.348-8.772 3.304-9.58 13.743 2.172-3.162 6.22-4.669 10.376-4.413 7.168.443 11.958 5.572 11.445 13.887-.466 7.551-5.36 13.015-13.896 12.489-11.599-.716-14.105-9.054-13.321-21.746.771-12.476 5.393-19.768 15.352-19.153 7.769.48 11.35 5.642 11.677 10.991L205.501 1901.833zM189.83 1918.165c-.304 4.925 2.393 8.387 7.699 8.715 4.597.284 7.635-2.662 7.925-7.365.294-4.76-1.905-8.301-7.157-8.626C194.194 1910.635 190.157 1912.859 189.83 1918.165zM245.038 1895.158l-.287 4.648-17.376 34.132-6.291-.388 17.498-33.465-20.245-1.25.328-5.306L245.038 1895.158zM250.844 1905.455c.358-5.798 4.988-10.509 13.796-9.966 8.809.544 12.82 5.842 12.465 11.587-.263 4.268-2.917 7.234-6.243 8.623 3.955 1.78 6.415 5.503 6.121 10.263-.449 7.277-6.649 11.617-14.91 11.107-8.206-.507-13.825-5.576-13.376-12.853.298-4.816 3.199-8.205 7.283-9.436C252.693 1912.874 250.57 1909.887 250.844 1905.455zM254.676 1924.366c-.25 4.047 2.631 7.192 7.718 7.506 5.034.311 8.229-2.513 8.475-6.506.277-4.486-2.911-7.1-7.618-7.391C258.656 1917.692 254.963 1919.715 254.676 1924.366zM271.095 1907.474c.253-4.103-2.4-6.519-6.776-6.788-4.266-.263-7.248 1.75-7.508 5.962-.223 3.611 2.575 6.364 6.731 6.621C267.701 1913.526 270.872 1911.084 271.095 1907.474zM313.853 1898.527c11.162.689 13.684 9.632 12.981 21.012-.716 11.599-4.319 20.163-15.481 19.474-11.162-.689-13.684-9.632-12.968-21.231C299.088 1906.403 302.691 1897.838 313.853 1898.527zM313.502 1904.216c-7.278-.449-8.529 6.503-8.989 13.945-.483 7.823-.086 14.712 7.192 15.161 7.277.449 8.519-6.339 9.001-14.161C321.166 1911.719 320.779 1904.665 313.502 1904.216zM348.939 1900.693c11.162.689 13.684 9.632 12.982 21.012-.716 11.599-4.319 20.163-15.481 19.474-11.162-.689-13.684-9.631-12.968-21.23C334.174 1908.569 337.778 1900.004 348.939 1900.693zM348.588 1906.382c-7.277-.449-8.529 6.503-8.989 13.945-.483 7.823-.085 14.712 7.192 15.161 7.277.449 8.519-6.339 9.002-14.161C356.252 1913.885 355.865 1906.831 348.588 1906.382zM384.031 1902.859c11.162.689 13.684 9.631 12.981 21.012-.716 11.598-4.319 20.162-15.481 19.474-11.162-.689-13.684-9.632-12.968-21.23C369.266 1910.735 372.868 1902.17 384.031 1902.859zM383.679 1908.548c-7.277-.449-8.529 6.503-8.988 13.945-.483 7.822-.086 14.711 7.191 15.161 7.278.449 8.519-6.339 9.002-14.161C391.344 1916.051 390.956 1908.997 383.679 1908.548zM408.765 1910.81l-5.09-.314.351-5.689 11.38.703-2.462 39.884-6.29-.388L408.765 1910.81zM452.511 1907.087c11.162.689 13.684 9.631 12.981 21.012-.716 11.598-4.319 20.162-15.481 19.474-11.162-.689-13.684-9.632-12.968-21.23C437.746 1914.962 441.349 1906.398 452.511 1907.087zM452.159 1912.776c-7.277-.449-8.529 6.503-8.988 13.945-.483 7.822-.086 14.711 7.191 15.161 7.278.449 8.519-6.339 9.002-14.161C459.824 1920.278 459.437 1913.225 452.159 1912.776zM477.246 1915.038l-5.09-.314.351-5.689 11.38.703-2.462 39.884-6.29-.388L477.246 1915.038zM489.849 1945.034c9.919-7.68 20.268-14.293 20.75-22.116.257-4.158-1.371-7.114-6.022-7.401-4.377-.271-6.919 2.649-7.36 7.125l-6.018-.371c.752-8.632 6.593-12.499 13.65-12.063 8.099.5 12.393 5.653 11.951 12.818-.598 9.685-10.902 16.463-17.664 21.922l17.343 1.071-.321 5.196-26.589-1.641L489.849 1945.034zM537.098 1912.087c7.934.49 11.972 5.354 11.613 11.152-.294 4.76-3.503 7.802-6.685 8.65l-.014.218c4.081 1.516 6.548 5.129 6.207 10.655-.392 6.346-5.175 10.883-13.49 10.369-7.551-.466-13.161-4.766-13.062-12.614l6.019.371c.044 3.74 2.604 6.752 7.308 7.043 4.651.287 7.125-2.415 7.355-6.137.324-5.252-2.957-7.266-9.467-7.668l-1.424-.088.318-5.143 1.477.091c5.638.292 9.188-1.137 9.451-5.402.213-3.448-1.888-5.883-6.157-6.146-4.376-.27-6.563 2.229-7.119 4.996l-6.072-.375C524.22 1915.191 529.821 1911.638 537.098 1912.087z"></path><g><rect width="118.365" height="1054.523" x="59.963" y="1162.861" fill="#2F627C" transform="rotate(-86.468 119.131 1690.111)"></rect></g><g><path fill="#91C4F6" d="M-253.936 1698.793l-22.64-1.397 3.494-56.595 21.579 1.332c11.972.739 17.917 7.729 17.424 15.708-.423 6.839-4.833 10.737-10.41 12.353 5.962 1.433 10.476 7.758 10.059 14.518C-234.964 1693.342-242.376 1699.506-253.936 1698.793zM-252.783 1649.655l-11.484-.709-1 16.206 11.484.709c6.024.372 9.866-2.25 10.188-7.461C-243.279 1653.266-246.76 1650.026-252.783 1649.655zM-253.519 1673.48l-12.216-.754-1.091 17.67 12.542.775c6.269.387 10.294-2.553 10.631-8.01C-243.307 1677.541-247.333 1673.862-253.519 1673.48zM-190.412 1691.106l-23.697-1.463-4.784 11.313-9.691-.598 23.775-55.422 10.748.663 16.781 57.926-9.773-.604L-190.412 1691.106zM-200.129 1656.502l-10.907 25.73 18.486 1.141L-200.129 1656.502zM-118.465 1650.266l-3.498 56.674-9.283-.573-25.322-43.987-2.609 42.263-9.282-.573 3.499-56.675 9.282.573 25.327 43.905 2.604-42.18L-118.465 1650.266zM-98.871 1682.943l-1.563 25.325-9.283-.573 3.494-56.594 9.282.573-1.594 25.812 23.581-24.455 11.646.719-26.342 26.821 23.253 29.799-12.13-.749L-98.871 1682.943zM-7.609 1656.453c11.809.729 21.62 7.302 25.253 18.645l-11.156-.689c-2.642-6.213-7.84-9.396-14.6-9.813-11.235-.694-19.87 6.783-20.659 19.57-.789 12.784 6.856 21.349 18.091 22.043 6.76.418 12.31-2.102 15.696-7.943l11.156.689c-5.001 10.81-15.54 16.043-27.349 15.314-15.96-.985-28.171-13.672-27.121-30.69C-37.253 1666.64-23.569 1655.468-7.609 1656.453zM60.854 1706.618l-23.697-1.463-4.785 11.312-9.69-.598 23.774-55.422 10.748.663 16.777 57.926-9.77-.603L60.854 1706.618zM51.136 1672.013l-10.906 25.73 18.486 1.141L51.136 1672.013zM105.843 1664.192c13.437.829 19.556 8.974 18.989 18.175-.412 6.677-4.438 13.623-14.112 15.395l12.56 24.317-11.076-.683-11.632-23.441-7.085-.437-1.397 22.636-9.283-.573 3.494-56.594L105.843 1664.192zM105.376 1671.764l-10.261-.633-1.171 18.973 10.261.633c7.247.448 10.752-3.339 11.099-8.959C115.655 1676.079 112.623 1672.212 105.376 1671.764zM184.565 1697.662c-1.076 17.425-13.623 27.359-31.781 26.238l-18.486-1.141 3.494-56.594 18.486 1.141C174.436 1668.427 185.645 1680.154 184.565 1697.662zM153.252 1716.328c13.354.824 20.994-6.388 21.788-19.255.799-12.946-5.875-21.372-19.229-22.196l-9.203-.568-2.559 41.451L153.252 1716.328z"></path></g><path fill="#91C4F6" d="M-75.252,1957.576c-0.442,7.154-6.62,12.631-13.792,12.188l-189.328-11.688
			c-7.138-0.441-12.629-6.637-12.188-13.791l6.85-110.969c0.441-7.138,6.654-12.628,13.792-12.188l189.328,11.688
			c7.171,0.443,12.628,6.654,12.188,13.792L-75.252,1957.576z"></path></g><g><path fill="#DBA12C" d="M684.58,1551.973c2.284-1.692,63.629-13.824,66.851-13.195c3.222,0.629,9.415,20.188,11.781,26.295
			c2.365,6.106-12.846,30.068-20.829,33.912c-7.982,3.843-26.078-4.139-31.52-8.28c0,0-12.098,10.94-25.071,10.94
			C672.819,1601.645,674.029,1559.769,684.58,1551.973z"></path><path fill="#11405C" d="M777.207,1465.076
				c10.267-0.712,18.013-9.607,17.305-19.873c-0.299-4.366-2.131-8.485-5.164-11.639c7.541-1.239,14.2-6.029,15.294-14.284
				c1.093-8.257-4.56-15.526-12.604-17.817c0,0,0,0,0,0.106c7.016,2.857,12.351,9.6,11.218,17.479
				c-0.987,6.721-5.631,10.503-11.324,12.373c4.641-3.343,7.685-8.464,8.404-14.14c0.576-6.399-2.733-12.522-8.404-15.543
				c3.382-6.304,4.767-14.349,1.492-21.009c-2.695-5.738-8.537-9.334-14.872-9.158c3.089-9.352-1.989-19.438-11.342-22.53
				c-4.377-1.446-9.145-1.142-13.301,0.852c1.73-8.091-3.423-16.051-11.511-17.783c-2.113-0.453-4.301-0.441-6.41,0.029
				c0.09-3.931-2.116-7.556-5.651-9.284c-4.134-1.753-8.796-1.798-12.962-0.126c-2.061-3.535-5.784-5.776-9.875-5.945
				c-5.367-0.047-9.974,3.805-10.88,9.098c-6.849-2.229-14.6-3.677-21.406-0.654c-5.59,2.481-10.066,7.985-9.812,14.243
				c-11.749-2.178-23.044,5.578-25.224,17.328c-0.16,0.863-0.266,1.732-0.322,2.609c-5.394,0.64-10.039,4.107-12.182,9.098
				c-1.602,3.305-2.361,6.958-2.205,10.63c-4.815,0.937-8.49,4.844-9.14,9.706c-0.44,4.493,1.155,8.949,4.348,12.141
				c0.205,1.284,0.119,2.598-0.25,3.844c-1.901,6.355-0.5,13.238,3.738,18.341c-4.062,6.241-2.298,14.595,3.942,18.659
				c0.489,0.318,0.996,0.604,1.521,0.854c-2.165,7.978,2.447,16.219,10.377,18.551c-1.279,6.293,0.255,12.833,4.202,17.9
				c3.066,3.863,8.172,6.847,13.022,5.355c-0.399,3.864,3.363,6.933,7.081,7.521c1.393,0.187,2.8,0.221,4.2,0.106
				c1.796-0.39,3.643-0.469,5.463-0.232c1.724,0.505,2.817,2.249,4.202,3.382c0.924,0.804,1.933,1.507,3.003,2.099
				c8.315,4.468,18.621,2.544,24.767-4.62c4.959,4.328,12.061,3.402,17.711,0.736c1.805-0.922,3.526-1.998,5.148-3.215
				c1.39-1.192,3.113-1.924,4.936-2.1c1.177,0,2.375,0.187,3.571,0.146c4.053-0.126,6.996-2.71,9.58-5.547
				C760.589,1493.874,777.878,1481.145,777.207,1465.076z M617.549,1391.169c-0.081-5.101,3.055-9.704,7.836-11.49
				c0,0.378,0,0.63,0,0.63s-1.325,1.01-1.913,1.555c-1.057,1.038-1.953,2.228-2.667,3.53c-1.519,2.708-2.199,5.808-1.951,8.906
				c0.149,1.363,0.46,2.701,0.924,3.992c0.059,0.157,0.107,0.318,0.147,0.482c-1.455-2.274-2.248-4.907-2.289-7.606H617.549z
				 M709.435,1320.29c-4.808-0.725-9.559,1.634-11.889,5.905h-0.378c1.66-4.686,4.474-8.403,10.21-8.403
				c3.603,0.148,6.854,2.205,8.528,5.398l0,0c-1.812-1.552-4.026-2.555-6.385-2.9H709.435z M747.249,1482.3l0.126-0.126
				c10.379,4.493,22.449-0.041,27.308-10.251c-4.242,11.238-14.536,18.403-27.265,10.314L747.249,1482.3z"></path><path fill="#D7A28E" d="M696.771,1572.138
					c15.494,2.794,52.197-23.411,48.327-35.362c-3.562-10.973-6.412-41.897-7.034-66.862l-54.973,39.164
					C683.451,1514.723,679.481,1569.04,696.771,1572.138z"></path><path fill="#D7A28E" d="M630.506,1473.784
					c-6.219,25.858,25.871,47.667,39.815,50.541c3.79,0.775,65.307-19.495,70.42-51.339c3.255-20.292,13.524-65.909-22.034-79.201
					c-9.307-3.479-74.869-18.495-74.392,18.098C644.688,1440.766,637.76,1443.639,630.506,1473.784z"></path><path fill="#C18C7C" d="M670.32,1524.325c0.09,1.248,11.481,1.623,24.666-3.276c6.558-2.415,12.021-5.98,15.356-9.226
						c3.368-3.282,4.504-6.058,3.967-6.441c-0.602-0.464-2.652,1.336-6.236,3.589c-3.605,2.256-8.783,4.995-14.924,7.257
						C680.91,1520.806,670.113,1522.755,670.32,1524.325z"></path><path fill="#D7A28E" d="M737.5,1470.317c14.854,10.976,29.505-24.233,15.749-31.389c-3.972-2.068-12.047-3.375-14.715,4.659
					C735.658,1452.256,734.247,1467.912,737.5,1470.317z"></path><path fill="#11405C" d="M748.977 1445.31c-3.541 2.368-10.285 10.742-6.646 17.643 0 0 .25-4.472 2.8-7.045l6.144-2.359-5.941-.802L748.977 1445.31zM673.337 1447.885c2.704 1.269-6.703 10.914-1.341 12.306 5.362 1.39-3.636 2.909-4.44-1.482C666.754 1454.32 670.94 1446.761 673.337 1447.885zM692.19 1441.181c-1.424 2.996-.304 6.505 2.499 7.833 2.802 1.33 6.225-.02 7.647-3.019 1.424-2.996.306-6.506-2.496-7.836C697.036 1436.83 693.612 1438.182 692.19 1441.181z"></path><path fill="#FFF" d="M693.538,1440.261c-0.408,1.021-0.05,2.12,0.795,2.458c0.849,0.336,1.866-0.216,2.271-1.235
						c0.405-1.02,0.047-2.122-0.8-2.458C694.96,1438.691,693.941,1439.243,693.538,1440.261z"></path><path fill="#11405C" d="M716.994,1437.186c1.543,0.469,3.629-3.578,2.354-4.566c0,0-22.578-13.64-26.984-10.614
						c0,0-1.007,2.956-0.869,3.961c0.214,1.582,1.983,3.736,4.528,4.506L716.994,1437.186z"></path><g><path fill="#11405C" d="M653.284,1434c-0.172,3.314,2.199,6.133,5.297,6.293c3.097,0.163,5.747-2.392,5.92-5.707
							c0.174-3.314-2.199-6.13-5.294-6.293C656.109,1428.133,653.457,1430.688,653.284,1434z"></path><path fill="#FFF" d="M654.18,1432.641c0.014,1.095,0.764,1.976,1.674,1.965c0.91-0.011,1.64-0.91,1.626-2.005
						c-0.014-1.1-0.763-1.978-1.674-1.967C654.895,1430.643,654.165,1431.542,654.18,1432.641z"></path><path fill="#11405C" d="M650.938,1420.514c-1.185-0.159-1.309-3.183-0.298-3.566c0,0,18.646-2.814,19.664-0.505
						c0,0,0.617,2.911,0.464,3.726c-0.243,1.28-1.688,2.485-3.648,2.22L650.938,1420.514z"></path></g><path fill="#FFF" d="M681.617,1482.919
				c-17.603,1.99-19.105-4.62-26.43-4.956c-4.005-0.183-6.288,3.127-5.128,6.405c0,0,5.563,15.417,26.004,11.251
				C688.948,1492.997,685.499,1482.482,681.617,1482.919z"></path><path fill="#11405C" d="M740.107,1421.469
				c-14.784,2.28-14.245-0.784-21.795-15.339c-15.807,4.409-29.478,0.631-31.461-10.695c-7.991,9.909-16.059,15.415-29.991,5.006
				c-5.304,8.05-16.442,0.651-16.337-4.378c0.236-11.324,25.551-37.041,82.439-20.525c50.399,14.629,21.322,74.696,14.038,73.986
				C729.714,1448.818,741.497,1428.39,740.107,1421.469z"></path></g><g><path fill="#D7A28E" d="M916.724,1740.19c0,0,53.612,103.592,54.804,119.465c1.194,15.872-74.479,27.889-86.925,8.976
			c-4.95-7.525-48.464-82.229-48.464-82.229L916.724,1740.19z"></path><path fill="#F2CD33" d="M796.366,1566.048l34.238,4.113c0,0,99.859,167.915,119.848,205.107
			c-36.183,23.821-71.796,30.323-103.286,37.407c-27.257-40.761-28.165-46.154-42.872-76.795
			C777.273,1661.671,796.366,1566.048,796.366,1566.048z"></path><path fill="#DBA12C" d="M789.13,1660.648c1.548,15.302,33.622,124.216,56.179,149.243c0,0-28.115-20.912-39.085-60.741
			C795.089,1708.729,789.13,1660.648,789.13,1660.648z"></path><path fill="#D7A28E" d="M649.447,1740.19c-8.239,0.522-7.694,8.908-7.694,8.908l1.656,25.641l-61.516-21.038
				c0,0-4.975,5.062-1.823,8.92c1.44,1.766,30.533,15.162,30.533,15.162l-41.092-14.02c0,0-4.564,6.175-0.771,8.625
				c1.816,1.173,37.192,20.052,37.192,20.052l-37.969-13.77c0,0-1.118,8.289,0.284,9.202c7.218,4.704,34.38,18.909,34.38,18.909
				l-27.319-11.135c0,0-3.6,6.335,2.072,8.816c6.797,2.967,37.956,20.948,49.327,23.521c14.892,3.373,55.791,24.877,55.791,24.877
				s19.209-46.686,21.094-50.451c-5.63-2.321-25.614-10.875-25.614-10.875C666.55,1776.864,663.907,1761.789,649.447,1740.19z"></path><path fill="#D7A28E" d="M677.979,1791.533c0,0,210.441,41.105,220.077,40.856c9.636-0.252,78.812,14.696,73.488,32.842
				c-5.321,18.146-10.654,82.59-52.409,75.714c-97.946-16.133-262.563-100.76-262.563-100.76l23.472-45.837"></path><path fill="#C18C7C" d="M783.804 1812.675c0 0 111.647 14.467 146.453 25.95C930.258 1838.625 876.524 1847.414 783.804 1812.675zM616.428 1779.527c-.252.685-4.47-.234-9.427-2.043-4.952-1.814-8.768-3.837-8.519-4.517.248-.683 4.468.234 9.424 2.048C612.859 1776.826 616.675 1778.846 616.428 1779.527zM612.417 1794.678c-.279.669-4.213-.336-8.785-2.247-4.569-1.91-8.045-4.003-7.766-4.673.281-.669 4.213.336 8.782 2.249C609.22 1791.918 612.698 1794.009 612.417 1794.678zM609.855 1809.149c-.261.678-3.589.03-7.435-1.446-3.841-1.478-6.748-3.226-6.488-3.904.261-.678 3.589-.03 7.432 1.451C607.211 1806.725 610.114 1808.473 609.855 1809.149z"></path><path fill="#C18C7C" d="M611.397 1803.287c.579.529-.541 2.409-1.064 4.704-.592 2.298-.403 4.357-1.059 4.646-.649.374-2.282-2.055-1.501-5.263C608.576 1804.174 610.968 1802.791 611.397 1803.287zM613.927 1789.701c.574.529-.543 2.406-1.068 4.704-.59 2.298-.403 4.358-1.058 4.646-.647.374-2.28-2.054-1.496-5.263C611.101 1790.589 613.496 1789.206 613.927 1789.701zM617.592 1775.368c.577.529-.54 2.409-1.066 4.704-.592 2.296-.401 4.355-1.057 4.646-.651.372-2.282-2.055-1.501-5.263C614.769 1776.255 617.162 1774.872 617.592 1775.368z"></path></g></g><g><circle cx="898.187" cy="1084.378" r="52.269" fill="#F2CD33"></circle><path fill="#DBA12C" d="M896.286,1104.193c-3.745-0.369-7.854-2.088-10.616-4.664l3.192-4.786
				c2.883,2.271,5.765,3.805,9.08,3.805c3.987,0,5.951-1.963,5.951-5.276c0-8.101-16.69-6.935-16.69-18.471
				c0-5.705,3.56-9.755,9.083-10.736v-6.26h4.909v6.137c3.927,0.49,6.624,2.393,8.896,4.784l-3.62,4.112
				c-2.271-2.086-4.171-3.252-7.117-3.252c-3.315,0-5.338,1.719-5.338,4.908c0,7.364,16.69,5.891,16.69,18.286
				c0,5.828-3.437,10.125-9.51,11.229v6.32h-4.909V1104.193z"></path><path fill="#F2CD33" d="M-506.805,1951.109c5.927,34.236-17.021,66.794-51.257,72.721c-34.236,5.927-66.794-17.021-72.721-51.257
			s17.021-66.794,51.257-72.721S-512.732,1916.874-506.805,1951.109z"></path><path fill="#DBA12C" d="M-566.98,1985.732c-4.517,0.33-9.743-0.864-13.548-3.351l2.804-6.332
				c3.885,2.101,7.619,3.328,11.55,2.648c4.728-0.819,6.654-3.55,5.973-7.479c-1.663-9.608-21.216-4.797-23.585-18.479
				c-1.171-6.766,2.219-12.3,8.568-14.598l-1.286-7.424l5.822-1.008l1.26,7.279c4.757-0.225,8.348,1.478,11.531,3.847l-3.448,5.62
				c-3.121-2.008-5.615-3.001-9.108-2.396c-3.931,0.681-5.978,3.135-5.323,6.917c1.512,8.734,21.002,3.559,23.547,18.26
				c1.197,6.912-1.997,12.713-8.973,15.269l1.298,7.495l-5.822,1.008L-566.98,1985.732z"></path><g><path fill="#F2CD33" d="M1274.929,2437.441c7.841,45.292-22.519,88.365-67.812,96.206c-45.292,7.841-88.365-22.519-96.206-67.811
			c-7.841-45.292,22.519-88.365,67.811-96.206C1224.015,2361.789,1267.087,2392.149,1274.929,2437.441z"></path><path fill="#DBA12C" d="M1195.32,2483.245c-5.976,0.437-12.89-1.143-17.924-4.434l3.708-8.377
				c5.14,2.78,10.079,4.404,15.281,3.503c6.255-1.083,8.803-4.697,7.903-9.894c-2.201-12.711-28.069-6.347-31.203-24.447
				c-1.55-8.952,2.935-16.272,11.335-19.312l-1.701-9.822l7.702-1.333l1.667,9.63c6.295-0.299,11.044,1.955,15.257,5.089
				l-4.562,7.435c-4.129-2.656-7.429-3.97-12.05-3.17c-5.201,0.9-7.909,4.146-7.043,9.151c2.001,11.555,27.785,4.709,31.152,24.156
				c1.583,9.144-2.643,16.819-11.871,20.201l1.717,9.916l-7.702,1.333L1195.32,2483.245z"></path></g><g><path fill="#FFC439" d="M250.336,2253.307l-106.689,47.26l5.59,51.569l90.144,203.608l14.471-6.346l106.646-47.256l14.427-6.4
					l-90.2-203.565L250.336,2253.307z M211.937,2310.799c-6.255,2.774-13.563-0.11-16.357-6.333
					c-2.767-6.304,0.014-13.667,6.337-16.465c6.228-2.753,13.648,0.043,16.457,6.344C221.099,2300.652,218.26,2308,211.937,2310.799
					z"></path><path fill="#DBA12C" d="M229.489,2369.865l-3.713-8.357l14.484-6.386l3.768,8.315c13.719-2.929,24.458,3.864,31.193,19.189
						l1.595,3.507l-16.804,7.465l-2.099-4.658c-3.552-8.097-8.152-9.748-13.752-7.22c-5.643,2.472-7.507,6.972-3.969,15.05
						c10.283,23.187,45.506,8.95,59.771,41.295c6.732,15.267,4.482,28.073-6.945,36.192l3.669,8.243l-14.525,6.448l-3.683-8.262
						c-13.885,3.059-24.642-3.928-31.418-19.249l-3.375-7.76l16.706-7.36l3.907,8.831c3.607,8.053,8.439,9.432,14.041,6.905
						c5.671-2.494,7.956-6.967,4.377-15.043c-10.283-23.246-45.492-8.991-59.726-41.24
						C216.242,2390.6,218.262,2378.124,229.489,2369.865z"></path><path fill="#F2CD33" d="M78.723,1152.388l-39.951,205.709c0,0,129.399,65.465,134.114,60.728
				c4.715-4.738,86.399-199.258,86.399-199.258L78.723,1152.388z"></path><path fill="#DBA12C" d="M144.952,1243.149c8.997,3.91,12.482,11.954,6.06,21.549c-6.326,9.636-16.385,11.795-25.382,7.885
					c-9.092-3.951-12.576-11.995-6.249-21.631C125.803,1241.357,135.955,1239.239,144.952,1243.149z M174.752,1257.224l15.626,6.79
					l-77.273,45.683l-15.626-6.79L174.752,1257.224z M130.651,1255.849c-2.651,4.027-2.189,6.592,0.652,7.827
					c2.841,1.235,5.884,0.193,8.534-3.835c2.651-4.027,2.094-6.633-0.747-7.867C136.25,1250.739,133.302,1251.822,130.651,1255.849z
					 M162.415,1294.422c8.998,3.91,12.387,11.913,5.966,21.508c-6.326,9.636-16.385,11.796-25.382,7.886
					c-8.996-3.91-12.482-11.954-6.06-21.549C143.265,1292.63,153.418,1290.512,162.415,1294.422z M148.019,1307.081
					c-2.651,4.027-2.189,6.592,0.747,7.868c2.747,1.193,5.789,0.152,8.44-3.876c2.651-4.027,2.094-6.633-0.652-7.827
					C153.712,1302.012,150.67,1303.054,148.019,1307.081z"></path><g><path fill="#F2CD33" d="M971.542,1425.093l96.005,232.37c0,0,172.837-20.008,174.426-27.869
				c1.589-7.86-45.236-256.62-45.236-256.62L971.542,1425.093z"></path><path fill="#DBA12C" d="M1097.858,1472.176c11.593-2.034,20.4,3.716,20.315,17.568c0.037,13.83-8.606,22.641-20.199,24.676
					c-11.715,2.055-20.522-3.695-20.558-17.526C1077.501,1483.043,1086.265,1474.21,1097.858,1472.176z M1136.999,1466.567
					l20.134-3.532l-47.162,96.827l-20.135,3.532L1136.999,1466.567z M1091.936,1494.346c0.009,5.785,2.167,8.048,5.828,7.405
					c3.661-0.642,6.018-3.697,6.009-9.482c-0.008-5.785-2.289-8.026-5.949-7.383
					C1094.163,1485.529,1091.928,1488.562,1091.936,1494.346z M1149.24,1511.965c11.593-2.034,20.278,3.738,20.193,17.589
					c0.037,13.83-8.606,22.642-20.199,24.676c-11.592,2.034-20.399-3.716-20.314-17.568
					C1128.883,1522.832,1137.648,1513.999,1149.24,1511.965z M1143.197,1534.158c0.009,5.785,2.167,8.047,5.949,7.383
					c3.539-0.621,5.896-3.676,5.887-9.46c-0.008-5.785-2.289-8.026-5.827-7.405
					C1145.546,1525.318,1143.188,1528.373,1143.197,1534.158z"></path></g></g></g></svg>